<svg width="1080" height="1080" viewBox="0 0 1080 1080" fill="none" xmlns="http://www.w3.org/2000/svg">
<rect width="1080" height="1080" fill="black"/>
<path d="M312.13 748.08C281.843 748.08 255.097 742.967 231.89 732.74C208.683 722.12 190.393 707.173 177.02 687.9C163.647 668.233 156.763 644.437 156.37 616.51H236.02C236.807 635.783 243.69 652.107 256.67 665.48C270.043 678.46 288.333 684.95 311.54 684.95C331.6 684.95 347.53 680.23 359.33 670.79C371.13 660.957 377.03 647.977 377.03 631.85C377.03 614.937 371.72 601.76 361.1 592.32C350.873 582.88 337.107 575.21 319.8 569.31C302.493 563.41 284.007 557.117 264.34 550.43C232.48 539.417 208.093 525.257 191.18 507.95C174.66 490.643 166.4 467.633 166.4 438.92C166.007 414.533 171.71 393.687 183.51 376.38C195.703 358.68 212.223 345.11 233.07 335.67C253.917 325.837 277.91 320.92 305.05 320.92C332.583 320.92 356.773 325.837 377.62 335.67C398.86 345.503 415.38 359.27 427.18 376.97C439.373 394.67 445.863 415.713 446.65 440.1H365.82C365.427 425.547 359.723 412.763 348.71 401.75C338.09 390.343 323.143 384.64 303.87 384.64C287.35 384.247 273.387 388.377 261.98 397.03C250.967 405.29 245.46 417.483 245.46 433.61C245.46 447.377 249.787 458.39 258.44 466.65C267.093 474.517 278.893 481.203 293.84 486.71C308.787 492.217 325.897 498.117 345.17 504.41C365.623 511.49 384.307 519.75 401.22 529.19C418.133 538.63 431.703 551.217 441.93 566.95C452.157 582.29 457.27 602.153 457.27 626.54C457.27 648.173 451.763 668.233 440.75 686.72C429.737 705.207 413.413 720.153 391.78 731.56C370.147 742.573 343.597 748.08 312.13 748.08ZM716.681 748.08C675.381 748.08 639.194 739.033 608.121 720.94C577.441 702.847 553.251 677.87 535.551 646.01C518.244 613.757 509.591 576.587 509.591 534.5C509.591 492.413 518.244 455.44 535.551 423.58C553.251 391.327 577.441 366.153 608.121 348.06C639.194 329.967 675.381 320.92 716.681 320.92C757.588 320.92 793.578 329.967 824.651 348.06C855.724 366.153 879.914 391.327 897.221 423.58C914.528 455.44 923.181 492.413 923.181 534.5C923.181 573.833 915.511 609.037 900.171 640.11C884.831 670.79 863.591 695.177 836.451 713.27L932.031 815.93H838.221L773.321 741.59C755.228 745.917 736.348 748.08 716.681 748.08ZM716.681 680.23C756.014 680.23 787.284 667.25 810.491 641.29C834.091 615.33 845.891 579.733 845.891 534.5C845.891 489.267 834.091 453.67 810.491 427.71C787.284 401.75 756.014 388.77 716.681 388.77C677.348 388.77 645.881 401.75 622.281 427.71C598.681 453.67 586.881 489.267 586.881 534.5C586.881 579.733 598.681 615.33 622.281 641.29C645.881 667.25 677.348 680.23 716.681 680.23Z" fill="white"/>
</svg>
